<mxfile host="app.diagrams.net" modified="2024-02-10T15:17:47.093Z" agent="Mozilla/5.0 (Windows NT 10.0; Win64; x64) AppleWebKit/537.36 (KHTML, like Gecko) Chrome/121.0.0.0 Safari/537.36" etag="nKiSEGl9WwOBkQzMjY45" version="22.1.21" type="github">
  <diagram id="wFE0QG_FPsp0jaGvCLVb" name="Page-1">
    <mxGraphModel dx="1050" dy="682" grid="1" gridSize="10" guides="1" tooltips="1" connect="1" arrows="1" fold="1" page="1" pageScale="1" pageWidth="850" pageHeight="1100" math="0" shadow="0">
      <root>
        <mxCell id="0" />
        <mxCell id="1" parent="0" />
        <mxCell id="tveTuQxvsXYbw-5Gut8c-1" value="La base de donnÃ©es" style="ellipse;whiteSpace=wrap;html=1;fillColor=#f8cecc;strokeColor=#b85450;" vertex="1" parent="1">
          <mxGeometry x="420" y="310" width="140" height="80" as="geometry" />
        </mxCell>
        <mxCell id="tveTuQxvsXYbw-5Gut8c-2" value="Application web" style="rounded=1;whiteSpace=wrap;html=1;fillColor=#fff2cc;strokeColor=#d6b656;" vertex="1" parent="1">
          <mxGeometry x="280" y="180" width="160" height="60" as="geometry" />
        </mxCell>
        <mxCell id="tveTuQxvsXYbw-5Gut8c-3" value="Application Bureautique" style="rounded=1;whiteSpace=wrap;html=1;fillColor=#fff2cc;strokeColor=#d6b656;" vertex="1" parent="1">
          <mxGeometry x="540" y="180" width="160" height="60" as="geometry" />
        </mxCell>
        <mxCell id="tveTuQxvsXYbw-5Gut8c-4" value="" style="endArrow=classic;html=1;rounded=0;exitX=0.5;exitY=1;exitDx=0;exitDy=0;" edge="1" parent="1" source="tveTuQxvsXYbw-5Gut8c-2">
          <mxGeometry width="50" height="50" relative="1" as="geometry">
            <mxPoint x="400" y="380" as="sourcePoint" />
            <mxPoint x="440" y="320" as="targetPoint" />
          </mxGeometry>
        </mxCell>
        <mxCell id="tveTuQxvsXYbw-5Gut8c-5" value="" style="endArrow=classic;html=1;rounded=0;exitX=0.5;exitY=1;exitDx=0;exitDy=0;entryX=1;entryY=0;entryDx=0;entryDy=0;" edge="1" parent="1" target="tveTuQxvsXYbw-5Gut8c-1">
          <mxGeometry width="50" height="50" relative="1" as="geometry">
            <mxPoint x="600" y="240" as="sourcePoint" />
            <mxPoint x="680" y="320" as="targetPoint" />
          </mxGeometry>
        </mxCell>
        <mxCell id="tveTuQxvsXYbw-5Gut8c-6" value="API platform" style="rounded=1;whiteSpace=wrap;html=1;dashed=1;" vertex="1" parent="1">
          <mxGeometry x="100" y="290" width="160" height="60" as="geometry" />
        </mxCell>
        <mxCell id="tveTuQxvsXYbw-5Gut8c-8" value="Application mobile" style="rounded=1;whiteSpace=wrap;html=1;gradientColor=none;dashed=1;" vertex="1" parent="1">
          <mxGeometry x="100" y="420" width="160" height="60" as="geometry" />
        </mxCell>
        <mxCell id="tveTuQxvsXYbw-5Gut8c-9" value="Symfony" style="text;html=1;strokeColor=none;fillColor=none;align=center;verticalAlign=middle;whiteSpace=wrap;rounded=0;" vertex="1" parent="1">
          <mxGeometry x="330" y="150" width="60" height="30" as="geometry" />
        </mxCell>
        <mxCell id="tveTuQxvsXYbw-5Gut8c-10" value="Symfony (easyAdmin)" style="text;html=1;strokeColor=none;fillColor=none;align=center;verticalAlign=middle;whiteSpace=wrap;rounded=0;" vertex="1" parent="1">
          <mxGeometry x="542" y="150" width="150" height="30" as="geometry" />
        </mxCell>
        <mxCell id="tveTuQxvsXYbw-5Gut8c-12" value="Flutter" style="text;html=1;strokeColor=none;fillColor=none;align=center;verticalAlign=middle;whiteSpace=wrap;rounded=0;" vertex="1" parent="1">
          <mxGeometry x="100" y="390" width="60" height="30" as="geometry" />
        </mxCell>
        <mxCell id="tveTuQxvsXYbw-5Gut8c-13" value="" style="endArrow=classic;html=1;rounded=0;exitX=0.5;exitY=0;exitDx=0;exitDy=0;dashed=1;entryX=0.5;entryY=1;entryDx=0;entryDy=0;" edge="1" parent="1" source="tveTuQxvsXYbw-5Gut8c-8" target="tveTuQxvsXYbw-5Gut8c-6">
          <mxGeometry width="50" height="50" relative="1" as="geometry">
            <mxPoint x="400" y="380" as="sourcePoint" />
            <mxPoint x="180" y="360" as="targetPoint" />
          </mxGeometry>
        </mxCell>
        <mxCell id="tveTuQxvsXYbw-5Gut8c-15" value="" style="endArrow=none;dashed=1;html=1;rounded=0;entryX=0;entryY=0.5;entryDx=0;entryDy=0;edgeStyle=orthogonalEdgeStyle;" edge="1" parent="1" target="tveTuQxvsXYbw-5Gut8c-2">
          <mxGeometry width="50" height="50" relative="1" as="geometry">
            <mxPoint x="180" y="290" as="sourcePoint" />
            <mxPoint x="230" y="240" as="targetPoint" />
            <Array as="points">
              <mxPoint x="180" y="210" />
            </Array>
          </mxGeometry>
        </mxCell>
        <mxCell id="tveTuQxvsXYbw-5Gut8c-16" value="(Dans un futur proche)" style="text;html=1;strokeColor=none;fillColor=none;align=center;verticalAlign=middle;whiteSpace=wrap;rounded=0;" vertex="1" parent="1">
          <mxGeometry x="100" y="230" width="80" height="30" as="geometry" />
        </mxCell>
      </root>
    </mxGraphModel>
  </diagram>
</mxfile>
